<?xml version="1.0" standalone="no"?>
<!DOCTYPE svg PUBLIC "-//W3C//DTD SVG 20010904//EN"
 "http://www.w3.org/TR/2001/REC-SVG-20010904/DTD/svg10.dtd">
<svg version="1.0" xmlns="http://www.w3.org/2000/svg"
 width="646.000000pt" height="648.000000pt" viewBox="0 0 646.000000 648.000000"
 preserveAspectRatio="xMidYMid meet">

<g transform="translate(0.000000,648.000000) scale(0.100000,-0.100000)"
fill="#000000" stroke="none">
<path d="M3122 6315 c-31 -23 -68 -90 -86 -159 -17 -69 -50 -107 -115 -134
-62 -27 -387 -92 -456 -92 -76 0 -111 17 -174 86 -71 78 -108 104 -146 104
-49 0 -119 -28 -162 -64 l-38 -34 0 -118 c-1 -141 -7 -156 -93 -235 -69 -65
-286 -205 -349 -226 -61 -21 -153 -12 -223 21 -62 29 -126 34 -169 12 -15 -8
-46 -35 -69 -60 -38 -41 -42 -51 -42 -95 0 -39 9 -66 41 -127 37 -69 41 -83
36 -126 -3 -26 -15 -69 -27 -95 -26 -58 -177 -285 -230 -346 -59 -67 -88 -77
-226 -77 l-117 0 -36 -38 c-56 -59 -77 -153 -47 -210 8 -15 40 -52 71 -82 120
-117 122 -133 57 -446 -30 -141 -62 -222 -102 -259 -12 -11 -67 -42 -122 -70
-120 -59 -138 -83 -138 -181 0 -98 29 -131 154 -175 71 -26 129 -80 163 -156
32 -69 84 -326 86 -418 1 -88 -10 -110 -106 -202 -56 -52 -77 -80 -82 -105 -8
-43 16 -119 50 -165 41 -52 77 -63 199 -61 101 3 105 2 147 -27 30 -21 74 -75
136 -165 184 -268 198 -320 130 -460 -60 -121 -46 -186 52 -255 57 -40 114
-40 191 1 47 25 66 29 130 29 63 0 85 -5 141 -31 90 -43 273 -167 330 -224 59
-59 72 -102 63 -208 -9 -107 4 -144 62 -178 68 -40 132 -56 169 -44 18 6 64
45 107 90 108 112 133 117 392 69 144 -27 258 -64 296 -96 35 -29 61 -77 79
-144 28 -102 98 -148 207 -134 80 10 123 53 153 151 25 84 48 117 103 145 68
35 116 49 272 80 241 47 292 38 386 -71 63 -71 93 -90 148 -90 50 0 162 56
180 90 9 18 11 52 7 122 -6 83 -4 103 13 140 28 61 99 125 232 209 63 39 137
86 163 102 35 23 64 32 105 35 51 3 66 -1 142 -38 71 -34 91 -40 125 -35 55 8
103 41 136 94 42 66 39 112 -12 211 -49 93 -49 121 -1 223 34 73 198 322 233
353 63 57 87 64 215 64 119 0 122 1 149 28 63 62 84 173 45 236 -11 18 -42 52
-71 76 -75 63 -89 91 -89 177 0 72 54 354 85 445 23 67 75 110 172 142 44 15
90 37 102 50 44 47 53 143 21 214 -20 45 -35 54 -155 97 -65 23 -117 79 -145
152 -41 110 -73 271 -74 378 -1 127 17 171 109 259 64 63 65 64 65 117 0 68
-27 128 -74 164 -34 26 -40 27 -149 26 -113 -1 -115 -1 -163 31 -37 25 -73 69
-151 183 -123 178 -155 240 -161 309 -3 45 1 60 37 128 59 110 57 151 -6 220
-81 87 -121 91 -254 28 -112 -53 -177 -38 -370 86 -152 98 -205 145 -244 216
-24 44 -27 60 -28 160 l-2 110 -34 28 c-42 36 -161 75 -197 66 -15 -4 -59 -40
-98 -81 -39 -40 -82 -79 -96 -86 -58 -31 -291 -4 -505 58 -79 23 -136 78 -160
153 -22 69 -59 134 -87 155 -16 10 -47 15 -103 15 -56 0 -87 -5 -103 -15z
m405 -600 c469 -62 882 -237 1248 -531 120 -95 322 -305 416 -429 429 -571
589 -1278 448 -1978 -16 -82 -50 -210 -75 -285 -54 -165 -187 -440 -279 -577
-552 -826 -1510 -1240 -2484 -1074 -230 39 -432 105 -656 214 -734 358 -1237
1046 -1362 1865 -22 145 -24 519 -5 660 43 301 123 558 256 818 254 495 700
913 1208 1131 214 92 450 157 669 185 148 19 471 19 616 1z"/>
<path d="M3025 5563 c-16 -1 -54 -6 -82 -9 -53 -5 -53 -6 -53 -40 0 -24 5 -34
16 -34 8 0 13 3 11 8 -3 4 27 8 67 9 39 1 108 4 154 8 l82 7 0 29 0 29 -82 -1
c-46 -1 -96 -4 -113 -6z"/>
<path d="M3568 5515 l-4 -33 116 -22 c63 -13 133 -29 154 -37 46 -16 63 -3 55
45 -2 8 -81 33 -88 27 -2 -3 -9 -1 -15 4 -6 5 -49 16 -96 25 -47 9 -92 18
-102 20 -12 3 -17 -5 -20 -29z"/>
<path d="M2518 5462 c-10 -2 -18 -7 -18 -10 0 -4 -11 -8 -23 -8 -13 -1 -74
-23 -136 -49 -83 -35 -111 -51 -107 -62 3 -8 6 -17 6 -19 0 -3 4 -2 10 1 6 3
7 -1 4 -9 -8 -21 10 -20 32 2 10 9 19 16 21 15 10 -9 33 -1 27 9 -4 6 -3 8 4
5 15 -10 43 3 35 16 -3 6 -1 7 6 3 10 -7 99 20 111 33 3 4 18 7 35 9 38 4 38
4 23 39 -9 19 -19 28 -30 25z"/>
<path d="M3005 5333 c-504 -62 -920 -265 -1266 -620 -333 -341 -531 -765 -579
-1242 -67 -666 197 -1330 704 -1767 310 -268 671 -433 1072 -490 158 -22 420
-22 578 0 691 98 1280 530 1581 1159 336 701 252 1532 -217 2149 -81 108 -220
252 -333 346 -297 249 -679 413 -1075 462 -78 9 -396 12 -465 3z m431 -1033
c81 -18 154 -66 190 -127 55 -93 59 -132 59 -623 -1 -429 -1 -448 -22 -515
-53 -169 -160 -230 -403 -228 -229 2 -338 67 -403 239 -22 58 -22 67 -22 524
l0 465 24 59 c46 115 152 194 288 216 70 11 218 6 289 -10z m-1103 -39 c85
-34 172 -119 197 -193 18 -51 20 -84 20 -292 0 -270 -11 -329 -76 -404 -66
-78 -146 -102 -334 -102 l-120 0 0 -87 c1 -57 6 -97 15 -113 10 -17 14 -58 15
-132 l0 -108 -200 0 -200 0 0 99 c0 86 3 105 23 138 22 38 22 39 22 490 l0
451 -22 31 c-21 27 -23 42 -23 141 l0 111 313 -3 c300 -3 314 -4 370 -27z
m2369 -8 c89 -42 159 -112 184 -184 17 -47 19 -84 19 -294 0 -206 -3 -248 -18
-295 -33 -98 -87 -156 -177 -190 -20 -7 -100 -15 -189 -18 l-154 -5 5 -88 c4
-58 11 -97 22 -113 12 -19 16 -50 16 -131 l0 -105 -200 0 -200 0 0 105 c0 87
3 110 20 137 19 32 20 51 20 483 0 432 -1 451 -20 483 -17 27 -20 50 -20 143
l0 110 313 -3 312 -3 67 -32z m-436 -1885 c-5 -37 -14 -58 -29 -70 -26 -20
-37 -9 -37 42 0 25 7 40 28 57 15 12 31 22 36 23 5 0 6 -24 2 -52z m154 -69
c0 -3 -36 -32 -80 -63 -44 -32 -80 -62 -80 -66 0 -5 11 -21 23 -36 l24 -27 74
56 c76 58 86 59 109 16 8 -14 -4 -27 -65 -73 -41 -31 -75 -60 -75 -64 0 -4 13
-22 28 -39 l27 -32 85 64 85 65 22 -28 c13 -15 22 -30 20 -34 -3 -10 -229
-178 -239 -178 -12 0 -240 309 -236 320 2 5 55 47 118 94 l115 85 22 -27 c13
-15 23 -30 23 -33z m-2291 25 c61 -31 100 -82 108 -143 5 -35 -11 -101 -24
-101 -2 0 -17 10 -33 22 -25 18 -30 29 -30 65 0 35 -6 49 -26 68 -70 65 -192
-5 -211 -119 -5 -31 -1 -40 30 -71 38 -38 63 -43 108 -20 28 15 32 14 60 -6
36 -25 34 -36 -11 -66 -77 -53 -191 -17 -249 78 -73 120 47 317 195 319 16 0
54 -12 83 -26z m1624 -371 l6 -31 -77 -17 c-121 -26 -114 -22 -106 -63 4 -20
9 -39 11 -42 2 -2 39 3 81 12 42 9 80 13 84 9 3 -3 8 -19 10 -36 3 -28 0 -30
-42 -38 -25 -5 -61 -13 -81 -18 l-37 -9 18 -80 18 -80 -22 -5 c-73 -17 -66
-30 -112 185 -23 107 -41 196 -40 197 7 8 272 59 277 54 4 -3 9 -20 12 -38z
m-857 4 c4 -4 63 -422 59 -425 -2 -2 -23 0 -47 5 -43 8 -43 9 -46 55 -2 34 -8
48 -20 52 -9 2 -41 10 -71 17 -59 13 -56 15 -101 -48 -13 -18 -20 -19 -58 -11
-42 9 -43 10 -29 31 8 12 61 93 117 181 l104 158 45 -6 c24 -3 46 -7 47 -9z"/>
<path d="M3223 4055 c-17 -7 -40 -28 -50 -47 -17 -30 -18 -66 -18 -443 0 -366
2 -414 17 -448 33 -72 126 -85 172 -24 20 28 21 39 24 460 3 474 3 479 -54
503 -41 17 -50 17 -91 -1z"/>
<path d="M2020 3782 l0 -260 34 -12 c48 -15 107 2 140 40 32 39 39 87 34 257
-4 186 -24 217 -146 229 l-62 7 0 -261z"/>
<path d="M4370 3782 l0 -261 42 -12 c61 -16 123 11 152 66 19 36 21 57 21 195
0 220 -21 255 -157 267 l-58 6 0 -261z"/>
<path d="M2788 1800 c-20 -33 -33 -62 -29 -64 4 -3 26 -8 48 -12 l40 -6 -9 63
c-4 35 -9 67 -11 71 -1 4 -19 -19 -39 -52z"/>
<path d="M4212 5312 c-10 -28 -8 -30 44 -55 30 -15 90 -49 135 -77 44 -27 84
-50 89 -50 4 0 15 11 23 23 15 23 14 24 -76 79 -84 51 -190 108 -201 108 -2 0
-9 -13 -14 -28z"/>
<path d="M1860 5124 c-25 -20 -46 -40 -48 -45 -2 -5 -9 -9 -15 -9 -7 0 -39
-25 -72 -55 -49 -45 -57 -56 -45 -65 8 -5 11 -10 7 -10 -4 0 -2 -6 5 -14 14
-15 32 -11 22 5 -3 5 -2 8 3 7 4 -2 48 29 97 67 145 114 142 111 130 132 -17
28 -35 25 -84 -13z"/>
<path d="M4768 4926 c-16 -23 -16 -24 41 -80 31 -31 61 -53 65 -49 4 5 6 3 4
-2 -4 -13 82 -115 97 -115 7 0 19 8 29 19 16 17 11 24 -96 135 -61 64 -114
116 -117 116 -4 0 -14 -11 -23 -24z"/>
<path d="M1406 4681 c-10 -11 -15 -25 -10 -32 4 -7 3 -10 -3 -6 -6 4 -16 0
-23 -8 -7 -8 -9 -15 -4 -15 5 0 3 -4 -4 -8 -20 -13 -62 -74 -56 -83 3 -5 0 -9
-5 -9 -6 0 -24 -21 -40 -47 l-30 -47 27 -16 c25 -15 28 -15 39 -1 6 9 9 19 7
23 -3 5 -1 8 5 8 5 0 20 17 32 38 13 20 46 69 75 108 l53 72 -23 21 c-22 21
-23 21 -40 2z"/>
<path d="M5186 4397 c-17 -12 -17 -15 0 -50 9 -20 21 -34 26 -31 5 3 7 2 6 -3
-4 -13 43 -123 53 -123 5 0 8 -3 7 -7 -5 -18 25 -83 37 -83 26 0 45 12 45 29
-1 27 -85 192 -94 184 -5 -4 -6 -2 -2 4 8 14 -34 93 -50 93 -5 0 -18 -6 -28
-13z"/>
<path d="M1036 3983 c-20 -63 -34 -119 -31 -124 4 -5 2 -9 -4 -9 -5 0 -9 -8
-9 -17 0 -10 -3 -26 -7 -35 -6 -15 -2 -18 19 -18 14 0 29 0 33 -1 4 0 17 36
29 80 12 45 20 81 17 81 -3 0 0 7 7 15 6 8 9 18 6 24 -3 5 -3 11 2 13 12 5 41
87 33 92 -4 3 -19 7 -33 10 -24 4 -26 -1 -62 -111z"/>
<path d="M5437 3772 c-22 -3 -26 -8 -23 -25 2 -12 9 -58 16 -102 6 -44 14 -87
17 -95 3 -8 6 -35 7 -60 1 -44 2 -45 31 -42 16 2 31 5 33 7 2 2 -1 36 -7 77
-6 40 -11 86 -11 101 0 16 -4 26 -8 23 -5 -3 -8 6 -6 20 1 14 -3 42 -9 62 -11
32 -16 37 -40 34z"/>
<path d="M926 3397 c-7 -40 -7 -197 1 -254 5 -39 8 -43 33 -43 l28 0 1 165 2
165 -30 0 c-25 0 -30 -5 -35 -33z"/>
<path d="M5454 3075 c-3 -14 -4 -39 -2 -55 3 -17 2 -30 -2 -30 -5 0 -34 -164
-35 -199 0 -8 12 -18 27 -22 26 -7 28 -4 39 33 5 22 8 42 5 45 -3 3 -1 13 3
22 13 23 32 196 25 215 -10 26 -53 20 -60 -9z"/>
<path d="M1005 2750 c4 -6 -1 -7 -11 -3 -13 5 -16 3 -11 -10 3 -8 9 -32 13
-51 3 -20 10 -34 14 -31 5 3 6 -4 3 -15 -3 -12 0 -20 6 -20 7 0 10 -4 6 -9 -4
-8 40 -156 51 -169 1 -2 16 -1 32 3 23 5 29 10 25 26 -3 10 -10 19 -15 19 -5
0 -7 4 -4 9 4 5 1 22 -6 38 -6 15 -11 31 -10 36 1 4 -2 7 -7 7 -5 0 -8 6 -8
13 1 6 -7 47 -17 90 -18 69 -22 77 -43 77 -14 0 -21 -4 -18 -10z"/>
<path d="M5276 2373 c-16 -38 -46 -101 -68 -141 -37 -70 -39 -74 -21 -88 10
-7 24 -14 31 -14 12 0 95 157 132 251 l19 47 -22 6 c-39 10 -42 7 -71 -61z"/>
<path d="M1258 2129 c-10 -5 -18 -15 -18 -22 0 -17 130 -207 141 -207 6 0 8
-4 5 -9 -3 -4 5 -17 17 -29 21 -20 23 -20 46 -3 l24 19 -35 43 c-20 24 -61 83
-92 132 -31 48 -59 87 -64 87 -4 0 -15 -5 -24 -11z"/>
<path d="M4951 1846 c-13 -14 -20 -29 -16 -36 3 -6 2 -9 -3 -8 -6 2 -48 -36
-94 -85 l-84 -87 23 -22 23 -22 53 56 c85 90 102 111 100 120 -2 4 1 7 6 6 8
-3 66 64 58 66 -1 1 -11 9 -23 19 -20 16 -21 16 -43 -7z"/>
<path d="M1684 1599 c-20 -22 -25 -15 86 -113 8 -7 46 -36 84 -65 l69 -52 18
27 18 28 -32 22 c-18 12 -36 23 -42 25 -5 2 -19 13 -30 24 -38 36 -144 125
-148 125 -2 0 -12 -9 -23 -21z"/>
<path d="M4405 1365 c-38 -24 -100 -58 -137 -76 l-67 -32 15 -28 c8 -16 17
-29 21 -29 6 0 153 83 242 137 35 21 40 35 19 60 -14 18 -15 18 -93 -32z"/>
<path d="M2245 1220 c-14 -27 -14 -30 2 -39 10 -5 20 -9 23 -9 3 1 25 -8 50
-19 131 -57 212 -85 220 -76 4 4 11 18 15 30 5 19 1 25 -22 34 -15 6 -38 12
-50 12 -13 1 -23 5 -23 8 0 6 -75 31 -86 29 -4 -1 -10 2 -13 7 -3 4 -27 18
-53 30 l-48 23 -15 -30z"/>
<path d="M3794 1105 c-44 -12 -113 -28 -152 -35 l-72 -13 0 -34 c0 -28 3 -33
18 -29 9 3 47 10 84 17 38 6 66 15 63 19 -3 5 3 6 12 4 10 -2 47 4 83 14 59
16 65 20 62 42 -1 14 -6 27 -10 31 -4 3 -43 -4 -88 -16z"/>
<path d="M2890 1022 c0 -29 3 -31 45 -38 25 -3 51 -4 60 -1 8 4 17 2 20 -3 3
-5 50 -9 104 -9 l98 -1 1 29 1 28 -97 7 c-53 4 -127 9 -164 13 l-68 6 0 -31z"/>
</g>
</svg>
